<?xml version="1.0" encoding="UTF-8" standalone="no"?>
<!-- Created with Inkscape (http://www.inkscape.org/) -->
<svg
   xmlns:dc="http://purl.org/dc/elements/1.1/"
   xmlns:cc="http://creativecommons.org/ns#"
   xmlns:rdf="http://www.w3.org/1999/02/22-rdf-syntax-ns#"
   xmlns:svg="http://www.w3.org/2000/svg"
   xmlns="http://www.w3.org/2000/svg"
   xmlns:xlink="http://www.w3.org/1999/xlink"
   xmlns:sodipodi="http://sodipodi.sourceforge.net/DTD/sodipodi-0.dtd"
   xmlns:inkscape="http://www.inkscape.org/namespaces/inkscape"
   id="svg3207"
   sodipodi:version="0.32"
   inkscape:version="0.46"
   width="744.095"
   height="1052.3625"
   xml:space="preserve"
   sodipodi:docname="AndARPongMarker.svg"
   inkscape:output_extension="org.inkscape.output.svg.inkscape"><metadata
     id="metadata3212"><rdf:RDF><cc:Work
         rdf:about=""><dc:format>image/svg+xml</dc:format><dc:type
           rdf:resource="http://purl.org/dc/dcmitype/StillImage" /></cc:Work></rdf:RDF></metadata><defs
     id="defs3210"><inkscape:perspective
       sodipodi:type="inkscape:persp3d"
       inkscape:vp_x="0 : 526.18109 : 1"
       inkscape:vp_y="0 : 1000 : 0"
       inkscape:vp_z="744.09448 : 526.18109 : 1"
       inkscape:persp3d-origin="372.04724 : 350.78739 : 1"
       id="perspective3214" /></defs><sodipodi:namedview
     inkscape:window-height="962"
     inkscape:window-width="1280"
     inkscape:pageshadow="2"
     inkscape:pageopacity="0.0"
     guidetolerance="10.0"
     gridtolerance="10.0"
     objecttolerance="10.0"
     borderopacity="1.0"
     bordercolor="#666666"
     pagecolor="#ffffff"
     id="base"
     showgrid="false"
     inkscape:zoom="1.241714"
     inkscape:cx="441.91829"
     inkscape:cy="820.7968"
     inkscape:window-x="1272"
     inkscape:window-y="-8"
     inkscape:current-layer="g3216" /><g
     id="g3216"
     inkscape:groupmode="layer"
     inkscape:label="Android"
     transform="matrix(1.25,0,0,-1.25,0,1052.3625)"><path
   d="M 114.29418,97.109347 L 486.24057,97.109347 L 486.24057,469.05574 L 114.29418,469.05574 L 114.29418,97.109347 z"
   style="fill:#000000;fill-opacity:1;fill-rule:nonzero;stroke:none"
   id="path3218" /><path
   d="M 191.08606,174.91166 L 409.33669,174.91166 L 409.33669,391.59025 L 191.08606,391.59025 L 191.08606,174.91166 z"
   style="fill:#ffffff;fill-opacity:1;fill-rule:nonzero;stroke:none"
   id="path3220" /><text
   xml:space="preserve"
   style="font-size:32px;font-style:normal;font-weight:normal;text-align:center;text-anchor:middle;fill:#000000;fill-opacity:1;stroke:none;stroke-width:1px;stroke-linecap:butt;stroke-linejoin:miter;stroke-opacity:1;font-family:Bitstream Vera Sans"
   x="302.49731"
   y="-807.26678"
   id="text3391"
   transform="scale(1,-1)"><tspan
     sodipodi:role="line"
     id="tspan3393"
     x="302.49731"
     y="-807.26678">AndAR - Pong</tspan><tspan
     sodipodi:role="line"
     x="302.49731"
     y="-767.26678"
     id="tspan3444" /></text>


<image
   xlink:href="C:\Users\Tobi\Downloads\AndARLogo.png"
   sodipodi:absref="C:\Users\Tobi\Downloads\AndARLogo.png"
   width="66.169533"
   height="66.169533"
   id="image3441"
   x="514.82092"
   y="-836.55078"
   transform="scale(1,-1)" />
<text
   xml:space="preserve"
   style="font-size:66.3908844px;font-style:normal;font-weight:bold;fill:#000000;fill-opacity:1;stroke:none;stroke-width:1px;stroke-linecap:butt;stroke-linejoin:miter;stroke-opacity:1;font-family:Bitstream Vera Sans"
   x="196.42197"
   y="-194.86153"
   id="text2427"
   transform="scale(1,-1)"><tspan
     sodipodi:role="line"
     id="tspan2429"
     x="196.42197"
     y="-194.86153"
     style="font-weight:bold">Center</tspan></text>

<path
   d="M 51.937996,598.79105 L 212.76896,598.79105 L 212.76896,759.62202 L 51.937996,759.62202 L 51.937996,598.79105 z"
   style="fill:#000000;fill-opacity:1;fill-rule:nonzero;stroke:none"
   id="path2431" /><path
   d="M 85.143087,632.43305 L 179.51545,632.43305 L 179.51545,726.12566 L 85.143087,726.12566 L 85.143087,632.43305 z"
   style="fill:#ffffff;fill-opacity:1;fill-rule:nonzero;stroke:none"
   id="path2433" /><path
   sodipodi:type="arc"
   style="fill:#000000;fill-opacity:0;stroke:none;stroke-width:104.30000305;stroke-miterlimit:4;stroke-dasharray:none;stroke-opacity:1"
   id="path2441"
   sodipodi:cx="406.59464"
   sodipodi:cy="199.3111"
   sodipodi:rx="58.084946"
   sodipodi:ry="110.47529"
   d="M 464.67958,199.3111 A 58.084946,110.47529 0 0 1 454.63529,261.40819 L 406.59464,199.3111 z"
   transform="matrix(0.8,0,0,-0.8,0,841.89)"
   sodipodi:start="0"
   sodipodi:end="0.59691105" /><path
   sodipodi:type="arc"
   style="fill:#000000;fill-opacity:0;stroke:#000000;stroke-width:104.30000305;stroke-miterlimit:4;stroke-dasharray:none;stroke-opacity:1"
   id="path3299"
   sodipodi:cx="457.84604"
   sodipodi:cy="217.53381"
   sodipodi:rx="48.973583"
   sodipodi:ry="52.390343"
   d="M 506.81962,217.53381 A 48.973583,52.390343 0 1 1 408.87246,217.53381 A 48.973583,52.390343 0 1 1 506.81962,217.53381 z"
   transform="matrix(0.2296548,0,0,-0.2296548,34.6736,741.10196)" /><rect
   style="fill:#000000;fill-opacity:0;stroke:#000000;stroke-width:15.32617092;stroke-miterlimit:4;stroke-dasharray:none;stroke-opacity:1"
   id="rect3305"
   width="3.4231467"
   height="40.206398"
   x="-289.39322"
   y="-641.21411"
   transform="matrix(0.81455,-0.5800934,-0.5800934,-0.81455,0,0)"
   inkscape:transform-center-x="-75.168754"
   inkscape:transform-center-y="-105.91961" /><text
   xml:space="preserve"
   style="font-size:19.20000076px;font-style:normal;font-weight:normal;fill:#000000;fill-opacity:1;stroke:none;stroke-width:1px;stroke-linecap:butt;stroke-linejoin:miter;stroke-opacity:1;font-family:Bitstream Vera Sans"
   x="283.74084"
   y="-761.47321"
   id="text3309"
   transform="scale(1,-1)"><tspan
     sodipodi:role="line"
     id="tspan3311"
     x="283.74084"
     y="-761.47321"
     style="font-size:14px">Instructions:</tspan><tspan
     sodipodi:role="line"
     x="283.74084"
     y="-743.97321"
     id="tspan3929"
     style="font-size:14px">1. Place the center marker on a flat surface</tspan><tspan
     sodipodi:role="line"
     x="283.74084"
     y="-726.47321"
     id="tspan3931"
     style="font-size:14px">2. Start the application &quot;AndAR Pong&quot;</tspan><tspan
     sodipodi:role="line"
     x="283.74084"
     y="-708.97321"
     id="tspan3933"
     style="font-size:14px">3. Point the camera to the marker labeled &quot;center&quot;</tspan><tspan
     sodipodi:role="line"
     x="283.74084"
     y="-691.47321"
     style="font-size:14px"
     id="tspan3208">4.You may control your paddle either using the </tspan><tspan
     sodipodi:role="line"
     x="283.74084"
     y="-673.97321"
     style="font-size:14px"
     id="tspan3218">   touchscreen or the marker on the left.</tspan><tspan
     sodipodi:role="line"
     x="283.74084"
     y="-656.47321"
     style="font-size:14px"
     id="tspan3210">5. Have fun!</tspan></text>

<g
   id="layer1"
   style="fill:#000000;fill-opacity:1"
   transform="matrix(1.9046852e-3,-6.5268827e-2,-6.5268827e-2,-1.9046852e-3,274.39835,682.14724)"><g
     id="g1406"
     style="fill:#000000;fill-opacity:1"><path
       d="M 39.363466,64.299446 L 337.79792,160.66327 C 318.82535,195.75498 411.10141,304.77756 493.4003,247.70845 C 514.1111,225.7258 486.38871,180.19993 461.28122,171.26779 C 445.69948,165.72449 390.94124,157.34123 369.35151,142.23237 C 347.76178,127.1235 351.36609,126.41697 327.89512,119.75059 C 279.61962,106.03906 58.455926,53.107176 39.363466,64.299446 z M 360.30533,190.25119 C 345.60248,171.37876 386.76711,166.16846 444.27095,185.21788 C 502.82282,206.95058 485.2023,239.25751 464.75686,244.75347 C 419.86756,256.8202 374.50784,215.24772 360.30533,190.25119 z"
       style="fill:#000000;fill-opacity:1;fill-rule:evenodd;stroke:none;stroke-width:1;stroke-linecap:butt;stroke-linejoin:miter;stroke-miterlimit:4;stroke-opacity:1"
       id="path1295" /><path
       d="M 446.84812,6.1254773 C 380.4031,3.5067771 322.37041,80.832202 337.78562,109.34423 L 39.348116,205.68798 C 58.440574,216.88025 279.60387,163.962 327.87937,150.25048 C 351.35034,143.5841 347.75839,142.89059 369.34812,127.78173 C 390.93785,112.67287 445.70387,104.26254 461.28562,98.719227 C 486.39311,89.787086 514.09016,44.264377 493.37937,22.281727 C 477.94833,11.581268 462.18159,6.7297973 446.84812,6.1254773 z M 447.94187,23.094227 C 453.50596,23.063478 459.14321,23.742137 464.75437,25.250477 C 485.19981,30.746438 502.80622,63.049037 444.25437,84.781727 C 386.75053,103.83115 345.58276,98.622907 360.28562,79.750477 C 372.71282,57.878516 408.99323,23.309447 447.94187,23.094227 z"
       style="fill:#000000;fill-opacity:1;fill-rule:evenodd;stroke:none;stroke-width:10;stroke-linecap:butt;stroke-linejoin:miter;stroke-miterlimit:4;stroke-opacity:1"
       id="use2824" /><path
       d="M 272.49285,130.41706 L 39.367846,205.69831 C 39.377366,205.70382 39.389476,205.72408 39.399096,205.72956 C 46.755686,209.92335 83.078596,204.90098 127.8991,196.35456 L 279.18035,147.66706 L 272.49285,130.41706 z"
       style="fill:#000000;fill-opacity:1;fill-rule:evenodd;stroke:none;stroke-width:10;stroke-linecap:butt;stroke-linejoin:miter;stroke-miterlimit:4;stroke-opacity:1"
       id="path11952" /><path
       d="M 258.25,65.875 C 258.25,72.571453 252.82145,78 246.125,78 C 239.42855,78 234,72.571453 234,65.875 C 234,59.178547 239.42855,53.75 246.125,53.75 C 252.82145,53.75 258.25,59.178547 258.25,65.875 z"
       transform="translate(68.5,69.11888)"
       style="fill:#000000;fill-opacity:1;fill-rule:evenodd;stroke:none;stroke-width:1;stroke-linecap:butt;stroke-linejoin:miter;marker:none;marker-start:none;marker-mid:none;marker-end:none;stroke-miterlimit:4;stroke-dashoffset:0;stroke-opacity:1;visibility:visible;display:inline;overflow:visible"
       id="path2095" /><rect
       width="24.75"
       height="3.21875"
       rx="1.609375"
       ry="0"
       x="-83.199677"
       y="333.41171"
       transform="matrix(0.19608,-0.980588,0.980588,0.19608,0,0)"
       style="fill:#000000;fill-opacity:1;fill-rule:evenodd;stroke:none;stroke-width:1;stroke-linecap:butt;stroke-linejoin:miter;marker:none;marker-start:none;marker-mid:none;marker-end:none;stroke-miterlimit:4;stroke-dashoffset:0;stroke-opacity:1;visibility:visible;display:inline;overflow:visible"
       id="rect2855" /></g></g><path
   style="fill:none;fill-opacity:0;stroke:#000000;stroke-width:1.73221384999999990;stroke-miterlimit:4;stroke-dasharray:5.19664153999999990, 1.73221384000000000;stroke-dashoffset:0;stroke-opacity:1"
   d="M -20.550564,-564.00517 L -20.550564,-793.67542 L 266.66202,-793.67542 L 266.66202,-564.00517"
   id="rect3869"
   transform="scale(1,-1)"
   sodipodi:nodetypes="cccc" /><rect
   style="fill:none;fill-opacity:0;stroke:#000000;stroke-width:1.60000002;stroke-miterlimit:4;stroke-dasharray:4.8, 1.6;stroke-dashoffset:0;stroke-opacity:1"
   id="rect3871"
   width="655.86761"
   height="595.30615"
   x="-29.314318"
   y="-556.64984"
   transform="scale(1,-1)" /><g
   id="g3887"
   style="fill:#000000;fill-opacity:1"
   transform="matrix(6.5296612e-2,0,0,-6.5296612e-2,544.17399,566.75346)"><g
     id="g3889"
     style="fill:#000000;fill-opacity:1"><path
       d="M 39.363466,64.299446 L 337.79792,160.66327 C 318.82535,195.75498 411.10141,304.77756 493.4003,247.70845 C 514.1111,225.7258 486.38871,180.19993 461.28122,171.26779 C 445.69948,165.72449 390.94124,157.34123 369.35151,142.23237 C 347.76178,127.1235 351.36609,126.41697 327.89512,119.75059 C 279.61962,106.03906 58.455926,53.107176 39.363466,64.299446 z M 360.30533,190.25119 C 345.60248,171.37876 386.76711,166.16846 444.27095,185.21788 C 502.82282,206.95058 485.2023,239.25751 464.75686,244.75347 C 419.86756,256.8202 374.50784,215.24772 360.30533,190.25119 z"
       style="fill:#000000;fill-opacity:1;fill-rule:evenodd;stroke:none;stroke-width:1;stroke-linecap:butt;stroke-linejoin:miter;stroke-miterlimit:4;stroke-opacity:1"
       id="path3891" /><path
       d="M 446.84812,6.1254773 C 380.4031,3.5067771 322.37041,80.832202 337.78562,109.34423 L 39.348116,205.68798 C 58.440574,216.88025 279.60387,163.962 327.87937,150.25048 C 351.35034,143.5841 347.75839,142.89059 369.34812,127.78173 C 390.93785,112.67287 445.70387,104.26254 461.28562,98.719227 C 486.39311,89.787086 514.09016,44.264377 493.37937,22.281727 C 477.94833,11.581268 462.18159,6.7297973 446.84812,6.1254773 z M 447.94187,23.094227 C 453.50596,23.063478 459.14321,23.742137 464.75437,25.250477 C 485.19981,30.746438 502.80622,63.049037 444.25437,84.781727 C 386.75053,103.83115 345.58276,98.622907 360.28562,79.750477 C 372.71282,57.878516 408.99323,23.309447 447.94187,23.094227 z"
       style="fill:#000000;fill-opacity:1;fill-rule:evenodd;stroke:none;stroke-width:10;stroke-linecap:butt;stroke-linejoin:miter;stroke-miterlimit:4;stroke-opacity:1"
       id="path3893" /><path
       d="M 272.49285,130.41706 L 39.367846,205.69831 C 39.377366,205.70382 39.389476,205.72408 39.399096,205.72956 C 46.755686,209.92335 83.078596,204.90098 127.8991,196.35456 L 279.18035,147.66706 L 272.49285,130.41706 z"
       style="fill:#000000;fill-opacity:1;fill-rule:evenodd;stroke:none;stroke-width:10;stroke-linecap:butt;stroke-linejoin:miter;stroke-miterlimit:4;stroke-opacity:1"
       id="path3895" /><path
       d="M 258.25,65.875 C 258.25,72.571453 252.82145,78 246.125,78 C 239.42855,78 234,72.571453 234,65.875 C 234,59.178547 239.42855,53.75 246.125,53.75 C 252.82145,53.75 258.25,59.178547 258.25,65.875 z"
       transform="translate(68.5,69.11888)"
       style="fill:#000000;fill-opacity:1;fill-rule:evenodd;stroke:none;stroke-width:1;stroke-linecap:butt;stroke-linejoin:miter;marker:none;marker-start:none;marker-mid:none;marker-end:none;stroke-miterlimit:4;stroke-dashoffset:0;stroke-opacity:1;visibility:visible;display:inline;overflow:visible"
       id="path3897" /><rect
       width="24.75"
       height="3.21875"
       rx="1.609375"
       ry="0"
       x="-83.199677"
       y="333.41171"
       transform="matrix(0.19608,-0.980588,0.980588,0.19608,0,0)"
       style="fill:#000000;fill-opacity:1;fill-rule:evenodd;stroke:none;stroke-width:1;stroke-linecap:butt;stroke-linejoin:miter;marker:none;marker-start:none;marker-mid:none;marker-end:none;stroke-miterlimit:4;stroke-dashoffset:0;stroke-opacity:1;visibility:visible;display:inline;overflow:visible"
       id="rect3899" /></g></g><g
   id="g3901"
   style="fill:#000000;fill-opacity:1"
   transform="matrix(6.5296612e-2,0,0,-6.5296612e-2,285.17715,565.46492)"><g
     id="g3903"
     style="fill:#000000;fill-opacity:1"><path
       d="M 39.363466,64.299446 L 337.79792,160.66327 C 318.82535,195.75498 411.10141,304.77756 493.4003,247.70845 C 514.1111,225.7258 486.38871,180.19993 461.28122,171.26779 C 445.69948,165.72449 390.94124,157.34123 369.35151,142.23237 C 347.76178,127.1235 351.36609,126.41697 327.89512,119.75059 C 279.61962,106.03906 58.455926,53.107176 39.363466,64.299446 z M 360.30533,190.25119 C 345.60248,171.37876 386.76711,166.16846 444.27095,185.21788 C 502.82282,206.95058 485.2023,239.25751 464.75686,244.75347 C 419.86756,256.8202 374.50784,215.24772 360.30533,190.25119 z"
       style="fill:#000000;fill-opacity:1;fill-rule:evenodd;stroke:none;stroke-width:1;stroke-linecap:butt;stroke-linejoin:miter;stroke-miterlimit:4;stroke-opacity:1"
       id="path3905" /><path
       d="M 446.84812,6.1254773 C 380.4031,3.5067771 322.37041,80.832202 337.78562,109.34423 L 39.348116,205.68798 C 58.440574,216.88025 279.60387,163.962 327.87937,150.25048 C 351.35034,143.5841 347.75839,142.89059 369.34812,127.78173 C 390.93785,112.67287 445.70387,104.26254 461.28562,98.719227 C 486.39311,89.787086 514.09016,44.264377 493.37937,22.281727 C 477.94833,11.581268 462.18159,6.7297973 446.84812,6.1254773 z M 447.94187,23.094227 C 453.50596,23.063478 459.14321,23.742137 464.75437,25.250477 C 485.19981,30.746438 502.80622,63.049037 444.25437,84.781727 C 386.75053,103.83115 345.58276,98.622907 360.28562,79.750477 C 372.71282,57.878516 408.99323,23.309447 447.94187,23.094227 z"
       style="fill:#000000;fill-opacity:1;fill-rule:evenodd;stroke:none;stroke-width:10;stroke-linecap:butt;stroke-linejoin:miter;stroke-miterlimit:4;stroke-opacity:1"
       id="path3907" /><path
       d="M 272.49285,130.41706 L 39.367846,205.69831 C 39.377366,205.70382 39.389476,205.72408 39.399096,205.72956 C 46.755686,209.92335 83.078596,204.90098 127.8991,196.35456 L 279.18035,147.66706 L 272.49285,130.41706 z"
       style="fill:#000000;fill-opacity:1;fill-rule:evenodd;stroke:none;stroke-width:10;stroke-linecap:butt;stroke-linejoin:miter;stroke-miterlimit:4;stroke-opacity:1"
       id="path3909" /><path
       d="M 258.25,65.875 C 258.25,72.571453 252.82145,78 246.125,78 C 239.42855,78 234,72.571453 234,65.875 C 234,59.178547 239.42855,53.75 246.125,53.75 C 252.82145,53.75 258.25,59.178547 258.25,65.875 z"
       transform="translate(68.5,69.11888)"
       style="fill:#000000;fill-opacity:1;fill-rule:evenodd;stroke:none;stroke-width:1;stroke-linecap:butt;stroke-linejoin:miter;marker:none;marker-start:none;marker-mid:none;marker-end:none;stroke-miterlimit:4;stroke-dashoffset:0;stroke-opacity:1;visibility:visible;display:inline;overflow:visible"
       id="path3911" /><rect
       width="24.75"
       height="3.21875"
       rx="1.609375"
       ry="0"
       x="-83.199677"
       y="333.41171"
       transform="matrix(0.19608,-0.980588,0.980588,0.19608,0,0)"
       style="fill:#000000;fill-opacity:1;fill-rule:evenodd;stroke:none;stroke-width:1;stroke-linecap:butt;stroke-linejoin:miter;marker:none;marker-start:none;marker-mid:none;marker-end:none;stroke-miterlimit:4;stroke-dashoffset:0;stroke-opacity:1;visibility:visible;display:inline;overflow:visible"
       id="rect3913" /></g></g><g
   id="g3915"
   style="fill:#000000;fill-opacity:1"
   transform="matrix(6.5296612e-2,0,0,-6.5296612e-2,112.5126,802.55655)"><g
     id="g3917"
     style="fill:#000000;fill-opacity:1"><path
       d="M 39.363466,64.299446 L 337.79792,160.66327 C 318.82535,195.75498 411.10141,304.77756 493.4003,247.70845 C 514.1111,225.7258 486.38871,180.19993 461.28122,171.26779 C 445.69948,165.72449 390.94124,157.34123 369.35151,142.23237 C 347.76178,127.1235 351.36609,126.41697 327.89512,119.75059 C 279.61962,106.03906 58.455926,53.107176 39.363466,64.299446 z M 360.30533,190.25119 C 345.60248,171.37876 386.76711,166.16846 444.27095,185.21788 C 502.82282,206.95058 485.2023,239.25751 464.75686,244.75347 C 419.86756,256.8202 374.50784,215.24772 360.30533,190.25119 z"
       style="fill:#000000;fill-opacity:1;fill-rule:evenodd;stroke:none;stroke-width:1;stroke-linecap:butt;stroke-linejoin:miter;stroke-miterlimit:4;stroke-opacity:1"
       id="path3919" /><path
       d="M 446.84812,6.1254773 C 380.4031,3.5067771 322.37041,80.832202 337.78562,109.34423 L 39.348116,205.68798 C 58.440574,216.88025 279.60387,163.962 327.87937,150.25048 C 351.35034,143.5841 347.75839,142.89059 369.34812,127.78173 C 390.93785,112.67287 445.70387,104.26254 461.28562,98.719227 C 486.39311,89.787086 514.09016,44.264377 493.37937,22.281727 C 477.94833,11.581268 462.18159,6.7297973 446.84812,6.1254773 z M 447.94187,23.094227 C 453.50596,23.063478 459.14321,23.742137 464.75437,25.250477 C 485.19981,30.746438 502.80622,63.049037 444.25437,84.781727 C 386.75053,103.83115 345.58276,98.622907 360.28562,79.750477 C 372.71282,57.878516 408.99323,23.309447 447.94187,23.094227 z"
       style="fill:#000000;fill-opacity:1;fill-rule:evenodd;stroke:none;stroke-width:10;stroke-linecap:butt;stroke-linejoin:miter;stroke-miterlimit:4;stroke-opacity:1"
       id="path3921" /><path
       d="M 272.49285,130.41706 L 39.367846,205.69831 C 39.377366,205.70382 39.389476,205.72408 39.399096,205.72956 C 46.755686,209.92335 83.078596,204.90098 127.8991,196.35456 L 279.18035,147.66706 L 272.49285,130.41706 z"
       style="fill:#000000;fill-opacity:1;fill-rule:evenodd;stroke:none;stroke-width:10;stroke-linecap:butt;stroke-linejoin:miter;stroke-miterlimit:4;stroke-opacity:1"
       id="path3923" /><path
       d="M 258.25,65.875 C 258.25,72.571453 252.82145,78 246.125,78 C 239.42855,78 234,72.571453 234,65.875 C 234,59.178547 239.42855,53.75 246.125,53.75 C 252.82145,53.75 258.25,59.178547 258.25,65.875 z"
       transform="translate(68.5,69.11888)"
       style="fill:#000000;fill-opacity:1;fill-rule:evenodd;stroke:none;stroke-width:1;stroke-linecap:butt;stroke-linejoin:miter;marker:none;marker-start:none;marker-mid:none;marker-end:none;stroke-miterlimit:4;stroke-dashoffset:0;stroke-opacity:1;visibility:visible;display:inline;overflow:visible"
       id="path3925" /><rect
       width="24.75"
       height="3.21875"
       rx="1.609375"
       ry="0"
       x="-83.199677"
       y="333.41171"
       transform="matrix(0.19608,-0.980588,0.980588,0.19608,0,0)"
       style="fill:#000000;fill-opacity:1;fill-rule:evenodd;stroke:none;stroke-width:1;stroke-linecap:butt;stroke-linejoin:miter;marker:none;marker-start:none;marker-mid:none;marker-end:none;stroke-miterlimit:4;stroke-dashoffset:0;stroke-opacity:1;visibility:visible;display:inline;overflow:visible"
       id="rect3927" /></g></g></g></svg>